<?xml version="1.0" encoding="UTF-8"?>
<svg xmlns="http://www.w3.org/2000/svg" xmlns:xlink="http://www.w3.org/1999/xlink" width="25px" height="24px" viewBox="0 0 24 24" version="1.1">
<g id="surface1">
<path style=" stroke:none;fill-rule:nonzero;fill:rgb(100%,36.078432%,8.627451%);fill-opacity:1;" d="M 22.425781 23.167969 L 17.257812 21.574219 L 13.359375 23.988281 L 10.636719 23.988281 L 6.738281 21.574219 L 1.570312 23.167969 L 0 17.667969 L 1.570312 11.566406 L 0 6.40625 L 1.570312 0.0117188 L 9.644531 5.011719 L 14.351562 5.011719 L 22.425781 0.0117188 L 23.996094 6.40625 L 22.425781 11.566406 L 23.996094 17.667969 Z M 22.425781 23.167969 "/>
<path style=" stroke:none;fill-rule:nonzero;fill:rgb(100%,36.078432%,8.627451%);fill-opacity:1;" d="M 1.574219 0.0117188 L 9.644531 5.011719 L 9.324219 8.445312 Z M 6.738281 17.671875 L 10.292969 20.476562 L 6.738281 21.574219 C 6.738281 21.574219 6.738281 17.671875 6.738281 17.671875 Z M 10.007812 13.035156 L 9.324219 8.449219 L 4.953125 11.566406 L 4.953125 11.570312 L 4.964844 14.777344 L 6.738281 13.035156 Z M 22.425781 0.0117188 L 14.351562 5.011719 L 14.671875 8.445312 Z M 17.257812 17.671875 L 13.707031 20.476562 L 17.257812 21.574219 Z M 19.042969 11.566406 L 19.046875 11.566406 L 19.042969 11.566406 L 14.671875 8.449219 L 13.992188 13.035156 L 17.257812 13.035156 L 19.03125 14.777344 C 19.03125 14.777344 19.042969 11.566406 19.042969 11.566406 Z M 19.042969 11.566406 "/>
<path style=" stroke:none;fill-rule:nonzero;fill:rgb(89.019608%,28.235295%,2.745098%);fill-opacity:1;" d="M 6.738281 21.574219 L 1.570312 23.167969 L 0 17.671875 L 6.738281 17.671875 C 6.738281 17.671875 6.738281 21.574219 6.738281 21.574219 Z M 10.007812 13.035156 L 10.992188 19.664062 L 9.625 15.976562 L 4.964844 14.777344 L 6.738281 13.035156 Z M 17.257812 21.574219 L 22.425781 23.167969 L 23.996094 17.671875 L 17.257812 17.671875 C 17.257812 17.671875 17.257812 21.574219 17.257812 21.574219 Z M 13.992188 13.035156 L 13.003906 19.664062 L 14.371094 15.976562 L 19.03125 14.777344 L 17.257812 13.035156 Z M 13.992188 13.035156 "/>
<path style=" stroke:none;fill-rule:nonzero;fill:rgb(100%,55.29412%,36.470589%);fill-opacity:1;" d="M 0 17.667969 L 1.570312 11.566406 L 4.953125 11.566406 L 4.964844 14.777344 L 9.625 15.976562 L 10.992188 19.660156 L 10.289062 20.472656 L 6.738281 17.667969 Z M 23.996094 17.667969 L 22.425781 11.566406 L 19.046875 11.566406 L 19.03125 14.777344 L 14.371094 15.976562 L 13.003906 19.660156 L 13.707031 20.472656 L 17.257812 17.667969 Z M 14.351562 5.011719 L 9.644531 5.011719 L 9.324219 8.445312 L 10.992188 19.65625 L 13.003906 19.65625 L 14.671875 8.445312 Z M 14.351562 5.011719 "/>
<path style=" stroke:none;fill-rule:nonzero;fill:rgb(40.000001%,9.411765%,0%);fill-opacity:1;" d="M 1.570312 0.0117188 L 0 6.40625 L 1.570312 11.566406 L 4.953125 11.566406 L 9.324219 8.445312 Z M 9.03125 14.363281 L 7.5 14.363281 L 6.664062 15.210938 L 9.625 15.972656 Z M 22.425781 0.0117188 L 23.996094 6.40625 L 22.425781 11.566406 L 19.046875 11.566406 L 14.671875 8.445312 Z M 14.96875 14.363281 L 16.503906 14.363281 L 17.335938 15.210938 L 14.371094 15.976562 Z M 13.355469 21.800781 L 13.707031 20.476562 L 13.003906 19.664062 L 10.992188 19.664062 L 10.289062 20.476562 L 10.636719 21.800781 "/>
<path style=" stroke:none;fill-rule:nonzero;fill:rgb(75.294119%,76.862746%,80.392158%);fill-opacity:1;" d="M 13.355469 21.800781 L 13.355469 23.988281 L 10.636719 23.988281 L 10.636719 21.800781 Z M 13.355469 21.800781 "/>
<path style=" stroke:none;fill-rule:nonzero;fill:rgb(90.588236%,92.156863%,96.470588%);fill-opacity:1;" d="M 6.738281 21.570312 L 10.640625 23.988281 L 10.640625 21.800781 L 10.292969 20.472656 C 10.292969 20.472656 6.738281 21.570312 6.738281 21.570312 Z M 17.257812 21.570312 L 13.355469 23.988281 L 13.355469 21.800781 L 13.707031 20.472656 C 13.707031 20.472656 17.257812 21.570312 17.257812 21.570312 Z M 17.257812 21.570312 "/>
</g>
</svg>
